<?xml version="1.0" standalone="no"?>
<!DOCTYPE svg PUBLIC "-//W3C//DTD SVG 20010904//EN"
 "http://www.w3.org/TR/2001/REC-SVG-20010904/DTD/svg10.dtd">
<svg version="1.0" xmlns="http://www.w3.org/2000/svg"
 width="16.000000pt" height="16.000000pt" viewBox="0 0 16.000000 16.000000"
 preserveAspectRatio="xMidYMid meet">
<metadata>
Created by potrace 1.11, written by Peter Selinger 2001-2013
</metadata>
<g transform="translate(0.000000,16.000000) scale(0.002286,-0.002286)"
fill="#000000" stroke="none">
<path d="M3428 6876 c-1 -2 -48 -6 -104 -10 -55 -4 -110 -8 -122 -11 -11 -2
-49 -6 -83 -10 -35 -4 -66 -8 -69 -10 -3 -2 -29 -6 -57 -10 -29 -3 -66 -10
-83 -15 -16 -5 -30 -7 -30 -5 0 3 -11 0 -26 -5 -14 -6 -39 -12 -57 -15 -37 -7
-149 -37 -232 -63 -265 -84 -550 -223 -758 -371 -44 -31 -89 -63 -100 -71 -59
-39 -223 -184 -317 -279 -335 -338 -568 -689 -848 -1274 -37 -77 -37 -77 68
-7 166 111 392 224 575 287 94 32 235 72 282 79 21 3 56 9 78 14 155 33 391
31 595 -6 69 -12 223 -66 303 -106 75 -38 218 -137 292 -203 30 -26 129 -114
169 -148 12 -10 37 -33 57 -50 329 -291 521 -408 794 -482 197 -54 342 -70
620 -70 224 1 288 6 429 36 273 58 505 177 677 349 236 235 361 537 368 895 4
205 -36 378 -132 567 -215 423 -651 739 -1237 897 -63 17 -131 33 -150 36 -19
3 -62 11 -95 17 -67 12 -83 14 -175 24 -36 3 -74 9 -85 11 -23 5 -541 13 -547
9z"/>
<path d="M6199 5314 c0 -54 -2 -119 -4 -144 -7 -104 -15 -196 -19 -210 -3 -8
-7 -37 -11 -64 -3 -27 -12 -76 -20 -110 -8 -34 -17 -76 -20 -94 -23 -136 -161
-463 -257 -614 -96 -149 -253 -313 -385 -401 -133 -88 -240 -132 -481 -196
-569 -152 -573 -154 -752 -239 -328 -156 -670 -522 -875 -937 -213 -430 -226
-834 -41 -1199 181 -354 527 -619 896 -685 431 -78 912 58 1348 381 113 83
137 104 266 228 88 85 287 310 326 370 8 12 37 52 64 89 133 178 329 526 415
736 124 299 199 601 227 910 8 88 8 383 0 450 -3 28 -9 75 -12 105 -5 49 -34
229 -49 301 -57 279 -188 635 -355 964 -85 167 -234 431 -256 454 -2 2 -4 -40
-5 -95z"/>
<path d="M1368 4695 c-2 -1 -30 -5 -64 -8 -119 -11 -274 -55 -402 -113 -41
-19 -75 -34 -78 -34 -7 0 -167 -106 -198 -131 -53 -45 -134 -129 -183 -192
-42 -53 -143 -210 -143 -222 0 -2 -13 -32 -29 -67 -48 -102 -86 -226 -106
-337 -3 -19 -8 -37 -10 -41 -2 -3 -7 -40 -11 -81 -3 -40 -8 -77 -10 -81 -6
-10 -5 -305 1 -363 50 -468 217 -919 501 -1353 63 -95 114 -177 114 -183 0 -5
4 -9 8 -9 14 0 129 -230 161 -320 34 -96 43 -147 45 -240 4 -156 -68 -371
-178 -534 -25 -38 -46 -72 -46 -76 0 -3 57 6 128 22 115 26 460 87 572 102
109 15 215 21 355 20 l150 -1 140 -52 c77 -29 160 -59 185 -66 169 -51 228
-67 331 -89 64 -14 138 -28 165 -31 27 -3 72 -10 99 -15 172 -31 674 -46 950
-28 55 4 118 7 140 7 l40 1 -50 26 c-28 15 -81 45 -120 67 -38 22 -79 45 -90
51 -55 29 -229 152 -299 210 -347 289 -555 593 -641 935 -29 118 -36 170 -36
286 0 113 5 154 42 335 17 80 33 156 35 169 3 12 12 53 20 90 9 36 18 77 20
91 3 14 12 59 20 100 49 234 55 501 15 687 -81 380 -302 800 -560 1066 -184
191 -439 338 -654 378 -29 5 -63 12 -77 14 -28 6 -247 15 -252 10z"/>
</g>
</svg>
